<?xml version="1.0" encoding="UTF-8" standalone="no"?>
<!-- Created with Inkscape (http://www.inkscape.org/) -->

<svg
   xmlns:dc="http://purl.org/dc/elements/1.1/"
   xmlns:cc="http://creativecommons.org/ns#"
   xmlns:rdf="http://www.w3.org/1999/02/22-rdf-syntax-ns#"
   xmlns:svg="http://www.w3.org/2000/svg"
   xmlns="http://www.w3.org/2000/svg"
   xmlns:xlink="http://www.w3.org/1999/xlink"
   xmlns:sodipodi="http://sodipodi.sourceforge.net/DTD/sodipodi-0.dtd"
   xmlns:inkscape="http://www.inkscape.org/namespaces/inkscape"
   width="31.999998mm"
   height="31.557297mm"
   viewBox="0 0 113.38582 111.81719"
   id="svg2"
   version="1.1"
   inkscape:version="0.91 r13725"
   sodipodi:docname="banana-coloured.svg">
  <title
     id="title4136">Banana - lineart</title>
  <defs
     id="defs4">
    <linearGradient
       inkscape:collect="always"
       id="linearGradient7020">
      <stop
         style="stop-color:#b78d2e;stop-opacity:1;"
         offset="0"
         id="stop7022" />
      <stop
         style="stop-color:#b78d2e;stop-opacity:0;"
         offset="1"
         id="stop7024" />
    </linearGradient>
    <linearGradient
       inkscape:collect="always"
       id="linearGradient6859">
      <stop
         style="stop-color:#ffcb00;stop-opacity:0"
         offset="0"
         id="stop6861" />
      <stop
         style="stop-color:#b78d2e;stop-opacity:0.59628773"
         offset="1"
         id="stop6863" />
    </linearGradient>
    <pattern
       inkscape:collect="always"
       xlink:href="#Polkadots-large"
       id="pattern6685"
       patternTransform="scale(0.61249999,0.56249999)" />
    <pattern
       inkscape:collect="always"
       xlink:href="#Polkadots-large"
       id="pattern6501"
       patternTransform="scale(0.57499999,0.76249999)" />
    <pattern
       inkscape:collect="always"
       xlink:href="#Polkadots-large"
       id="pattern6317"
       patternTransform="scale(0.67502929,0.68386813)" />
    <pattern
       inkscape:collect="always"
       xlink:href="#Polkadots-large"
       id="pattern6043"
       patternTransform="scale(0.89064078,0.83760777)" />
    <pattern
       inkscape:isstock="true"
       inkscape:stockid="Polka dots, large"
       id="Polkadots-large"
       patternTransform="translate(0,0) scale(10,10)"
       height="10"
       width="10"
       patternUnits="userSpaceOnUse"
       inkscape:collect="always">
      <circle
         id="circle5387"
         r="0.45"
         cy="0.810"
         cx="2.567"
         style="fill:black;stroke:none" />
      <circle
         id="circle5389"
         r="0.45"
         cy="2.33"
         cx="3.048"
         style="fill:black;stroke:none" />
      <circle
         id="circle5391"
         r="0.45"
         cy="2.415"
         cx="4.418"
         style="fill:black;stroke:none" />
      <circle
         id="circle5393"
         r="0.45"
         cy="3.029"
         cx="1.844"
         style="fill:black;stroke:none" />
      <circle
         id="circle5395"
         r="0.45"
         cy="1.363"
         cx="6.08"
         style="fill:black;stroke:none" />
      <circle
         id="circle5397"
         r="0.45"
         cy="4.413"
         cx="5.819"
         style="fill:black;stroke:none" />
      <circle
         id="circle5399"
         r="0.45"
         cy="4.048"
         cx="4.305"
         style="fill:black;stroke:none" />
      <circle
         id="circle5401"
         r="0.45"
         cy="3.045"
         cx="5.541"
         style="fill:black;stroke:none" />
      <circle
         id="circle5403"
         r="0.45"
         cy="5.527"
         cx="4.785"
         style="fill:black;stroke:none" />
      <circle
         id="circle5405"
         r="0.45"
         cy="5.184"
         cx="2.667"
         style="fill:black;stroke:none" />
      <circle
         id="circle5407"
         r="0.45"
         cy="1.448"
         cx="7.965"
         style="fill:black;stroke:none" />
      <circle
         id="circle5409"
         r="0.45"
         cy="5.049"
         cx="7.047"
         style="fill:black;stroke:none" />
      <circle
         id="circle5411"
         r="0.45"
         cy="0.895"
         cx="4.340"
         style="fill:black;stroke:none" />
      <circle
         id="circle5413"
         r="0.45"
         cy="0.340"
         cx="7.125"
         style="fill:black;stroke:none" />
      <circle
         id="circle5415"
         r="0.45"
         cy="1.049"
         cx="9.553"
         style="fill:black;stroke:none" />
      <circle
         id="circle5417"
         r="0.45"
         cy="2.689"
         cx="7.006"
         style="fill:black;stroke:none" />
      <circle
         id="circle5419"
         r="0.45"
         cy="2.689"
         cx="8.909"
         style="fill:black;stroke:none" />
      <circle
         id="circle5421"
         r="0.45"
         cy="4.407"
         cx="9.315"
         style="fill:black;stroke:none" />
      <circle
         id="circle5423"
         r="0.45"
         cy="3.870"
         cx="7.820"
         style="fill:black;stroke:none" />
      <circle
         id="circle5425"
         r="0.45"
         cy="5.948"
         cx="8.270"
         style="fill:black;stroke:none" />
      <circle
         id="circle5427"
         r="0.45"
         cy="7.428"
         cx="7.973"
         style="fill:black;stroke:none" />
      <circle
         id="circle5429"
         r="0.45"
         cy="8.072"
         cx="9.342"
         style="fill:black;stroke:none" />
      <circle
         id="circle5431"
         r="0.45"
         cy="9.315"
         cx="8.206"
         style="fill:black;stroke:none" />
      <circle
         id="circle5433"
         r="0.45"
         cy="9.475"
         cx="9.682"
         style="fill:black;stroke:none" />
      <circle
         id="circle5435"
         r="0.45"
         cy="6.186"
         cx="9.688"
         style="fill:black;stroke:none" />
      <circle
         id="circle5437"
         r="0.45"
         cy="6.296"
         cx="3.379"
         style="fill:black;stroke:none" />
      <circle
         id="circle5439"
         r="0.45"
         cy="8.204"
         cx="2.871"
         style="fill:black;stroke:none" />
      <circle
         id="circle5441"
         r="0.45"
         cy="8.719"
         cx="4.59"
         style="fill:black;stroke:none" />
      <circle
         id="circle5443"
         r="0.45"
         cy="9.671"
         cx="3.181"
         style="fill:black;stroke:none" />
      <circle
         id="circle5445"
         r="0.45"
         cy="7.315"
         cx="5.734"
         style="fill:black;stroke:none" />
      <circle
         id="circle5447"
         r="0.45"
         cy="6.513"
         cx="6.707"
         style="fill:black;stroke:none" />
      <circle
         id="circle5449"
         r="0.45"
         cy="9.670"
         cx="5.730"
         style="fill:black;stroke:none" />
      <circle
         id="circle5451"
         r="0.45"
         cy="8.373"
         cx="6.535"
         style="fill:black;stroke:none" />
      <circle
         id="circle5453"
         r="0.45"
         cy="7.154"
         cx="4.37"
         style="fill:black;stroke:none" />
      <circle
         id="circle5455"
         r="0.45"
         cy="7.25"
         cx="0.622"
         style="fill:black;stroke:none" />
      <circle
         id="circle5457"
         r="0.45"
         cy="5.679"
         cx="0.831"
         style="fill:black;stroke:none" />
      <circle
         id="circle5459"
         r="0.45"
         cy="8.519"
         cx="1.257"
         style="fill:black;stroke:none" />
      <circle
         id="circle5461"
         r="0.45"
         cy="6.877"
         cx="1.989"
         style="fill:black;stroke:none" />
      <circle
         id="circle5463"
         r="0.45"
         cy="3.181"
         cx="0.374"
         style="fill:black;stroke:none" />
      <circle
         id="circle5465"
         r="0.45"
         cy="1.664"
         cx="1.166"
         style="fill:black;stroke:none" />
      <circle
         id="circle5467"
         r="0.45"
         cy="0.093"
         cx="1.151"
         style="fill:black;stroke:none" />
      <circle
         id="circle5469"
         r="0.45"
         cy="10.093"
         cx="1.151"
         style="fill:black;stroke:none" />
      <circle
         id="circle5471"
         r="0.45"
         cy="4.451"
         cx="1.302"
         style="fill:black;stroke:none" />
      <circle
         id="circle5473"
         r="0.45"
         cy="3.763"
         cx="3.047"
         style="fill:black;stroke:none" />
    </pattern>
    <pattern
       inkscape:collect="always"
       xlink:href="#Polkadots-med"
       id="pattern5902"
       patternTransform="matrix(1.9452548,0,0,1.9934453,-4.4984478,-4.3452271)" />
    <pattern
       inkscape:stockid="Polka dots, medium"
       id="Polkadots-med"
       patternTransform="translate(0,0) scale(10,10)"
       height="10"
       width="10"
       patternUnits="userSpaceOnUse"
       inkscape:collect="always">
      <circle
         id="circle5209"
         r="0.15"
         cy="0.810"
         cx="2.567"
         style="fill:black;stroke:none" />
      <circle
         id="circle5211"
         r="0.15"
         cy="2.33"
         cx="3.048"
         style="fill:black;stroke:none" />
      <circle
         id="circle5213"
         r="0.15"
         cy="2.415"
         cx="4.418"
         style="fill:black;stroke:none" />
      <circle
         id="circle5215"
         r="0.15"
         cy="3.029"
         cx="1.844"
         style="fill:black;stroke:none" />
      <circle
         id="circle5217"
         r="0.15"
         cy="1.363"
         cx="6.08"
         style="fill:black;stroke:none" />
      <circle
         id="circle5219"
         r="0.15"
         cy="4.413"
         cx="5.819"
         style="fill:black;stroke:none" />
      <circle
         id="circle5221"
         r="0.15"
         cy="4.048"
         cx="4.305"
         style="fill:black;stroke:none" />
      <circle
         id="circle5223"
         r="0.15"
         cy="3.045"
         cx="5.541"
         style="fill:black;stroke:none" />
      <circle
         id="circle5225"
         r="0.15"
         cy="5.527"
         cx="4.785"
         style="fill:black;stroke:none" />
      <circle
         id="circle5227"
         r="0.15"
         cy="5.184"
         cx="2.667"
         style="fill:black;stroke:none" />
      <circle
         id="circle5229"
         r="0.15"
         cy="1.448"
         cx="7.965"
         style="fill:black;stroke:none" />
      <circle
         id="circle5231"
         r="0.15"
         cy="5.049"
         cx="7.047"
         style="fill:black;stroke:none" />
      <circle
         id="circle5233"
         r="0.15"
         cy="0.895"
         cx="4.340"
         style="fill:black;stroke:none" />
      <circle
         id="circle5235"
         r="0.15"
         cy="0.340"
         cx="7.125"
         style="fill:black;stroke:none" />
      <circle
         id="circle5237"
         r="0.15"
         cy="1.049"
         cx="9.553"
         style="fill:black;stroke:none" />
      <circle
         id="circle5239"
         r="0.15"
         cy="2.689"
         cx="7.006"
         style="fill:black;stroke:none" />
      <circle
         id="circle5241"
         r="0.15"
         cy="2.689"
         cx="8.909"
         style="fill:black;stroke:none" />
      <circle
         id="circle5243"
         r="0.15"
         cy="4.407"
         cx="9.315"
         style="fill:black;stroke:none" />
      <circle
         id="circle5245"
         r="0.15"
         cy="3.870"
         cx="7.820"
         style="fill:black;stroke:none" />
      <circle
         id="circle5247"
         r="0.15"
         cy="5.948"
         cx="8.270"
         style="fill:black;stroke:none" />
      <circle
         id="circle5249"
         r="0.15"
         cy="7.428"
         cx="7.973"
         style="fill:black;stroke:none" />
      <circle
         id="circle5251"
         r="0.15"
         cy="8.072"
         cx="9.342"
         style="fill:black;stroke:none" />
      <circle
         id="circle5253"
         r="0.15"
         cy="9.315"
         cx="8.206"
         style="fill:black;stroke:none" />
      <circle
         id="circle5255"
         r="0.15"
         cy="9.475"
         cx="9.682"
         style="fill:black;stroke:none" />
      <circle
         id="circle5257"
         r="0.15"
         cy="6.186"
         cx="9.688"
         style="fill:black;stroke:none" />
      <circle
         id="circle5259"
         r="0.15"
         cy="6.296"
         cx="3.379"
         style="fill:black;stroke:none" />
      <circle
         id="circle5261"
         r="0.15"
         cy="8.204"
         cx="2.871"
         style="fill:black;stroke:none" />
      <circle
         id="circle5263"
         r="0.15"
         cy="8.719"
         cx="4.59"
         style="fill:black;stroke:none" />
      <circle
         id="circle5265"
         r="0.15"
         cy="9.671"
         cx="3.181"
         style="fill:black;stroke:none" />
      <circle
         id="circle5267"
         r="0.15"
         cy="7.315"
         cx="5.734"
         style="fill:black;stroke:none" />
      <circle
         id="circle5269"
         r="0.15"
         cy="6.513"
         cx="6.707"
         style="fill:black;stroke:none" />
      <circle
         id="circle5271"
         r="0.15"
         cy="9.670"
         cx="5.730"
         style="fill:black;stroke:none" />
      <circle
         id="circle5273"
         r="0.15"
         cy="8.373"
         cx="6.535"
         style="fill:black;stroke:none" />
      <circle
         id="circle5275"
         r="0.15"
         cy="7.154"
         cx="4.37"
         style="fill:black;stroke:none" />
      <circle
         id="circle5277"
         r="0.15"
         cy="7.25"
         cx="0.622"
         style="fill:black;stroke:none" />
      <circle
         id="circle5279"
         r="0.15"
         cy="5.679"
         cx="0.831"
         style="fill:black;stroke:none" />
      <circle
         id="circle5281"
         r="0.15"
         cy="8.519"
         cx="1.257"
         style="fill:black;stroke:none" />
      <circle
         id="circle5283"
         r="0.15"
         cy="6.877"
         cx="1.989"
         style="fill:black;stroke:none" />
      <circle
         id="circle5285"
         r="0.15"
         cy="3.181"
         cx="0.374"
         style="fill:black;stroke:none" />
      <circle
         id="circle5287"
         r="0.15"
         cy="1.664"
         cx="1.166"
         style="fill:black;stroke:none" />
      <circle
         id="circle5289"
         r="0.15"
         cy="0.093"
         cx="1.151"
         style="fill:black;stroke:none" />
      <circle
         id="circle5291"
         r="0.15"
         cy="10.093"
         cx="1.151"
         style="fill:black;stroke:none" />
      <circle
         id="circle5293"
         r="0.15"
         cy="4.451"
         cx="1.302"
         style="fill:black;stroke:none" />
      <circle
         id="circle5295"
         r="0.15"
         cy="3.763"
         cx="3.047"
         style="fill:black;stroke:none" />
    </pattern>
    <radialGradient
       inkscape:collect="always"
       xlink:href="#linearGradient6859"
       id="radialGradient6865"
       cx="51.468475"
       cy="138.85709"
       fx="51.468475"
       fy="138.85709"
       r="10.06907"
       gradientTransform="matrix(1.12283,-0.00618424,0.01700542,3.087563,-7.6689243,-351.4697)"
       gradientUnits="userSpaceOnUse" />
    <radialGradient
       inkscape:collect="always"
       xlink:href="#linearGradient7020"
       id="radialGradient7026"
       cx="98.111069"
       cy="127.20004"
       fx="98.111069"
       fy="127.20004"
       r="4.125"
       gradientTransform="matrix(1,0,0,1.1060606,-57.605862,-98.540024)"
       gradientUnits="userSpaceOnUse" />
  </defs>
  <sodipodi:namedview
     id="base"
     pagecolor="#ffffff"
     bordercolor="#666666"
     borderopacity="1.0"
     inkscape:pageopacity="0.0"
     inkscape:pageshadow="2"
     inkscape:zoom="2.8284271"
     inkscape:cx="34.971437"
     inkscape:cy="58.059767"
     inkscape:document-units="mm"
     inkscape:current-layer="layer2"
     showgrid="false"
     inkscape:window-width="1529"
     inkscape:window-height="948"
     inkscape:window-x="700"
     inkscape:window-y="250"
     inkscape:window-maximized="0"
     borderlayer="true"
     inkscape:snap-global="false"
     fit-margin-top="1"
     fit-margin-right="1"
     fit-margin-bottom="1"
     fit-margin-left="1" />
  <metadata
     id="metadata7">
    <rdf:RDF>
      <cc:Work
         rdf:about="">
        <dc:format>image/svg+xml</dc:format>
        <dc:type
           rdf:resource="http://purl.org/dc/dcmitype/StillImage" />
        <dc:title>Banana - lineart</dc:title>
        <cc:license
           rdf:resource="http://creativecommons.org/publicdomain/zero/1.0/" />
        <dc:date>2016-03-27</dc:date>
        <dc:creator>
          <cc:Agent>
            <dc:title>Frank Tremmel</dc:title>
          </cc:Agent>
        </dc:creator>
        <dc:description>line art banana</dc:description>
        <dc:subject>
          <rdf:Bag>
            <rdf:li>banana</rdf:li>
            <rdf:li>fruit</rdf:li>
            <rdf:li>lineart</rdf:li>
            <rdf:li>outline</rdf:li>
            <rdf:li>education</rdf:li>
            <rdf:li>school</rdf:li>
            <rdf:li>banane</rdf:li>
            <rdf:li>frucht</rdf:li>
            <rdf:li>schule</rdf:li>
            <rdf:li>Unterricht</rdf:li>
            <rdf:li></rdf:li>
          </rdf:Bag>
        </dc:subject>
      </cc:Work>
      <cc:License
         rdf:about="http://creativecommons.org/publicdomain/zero/1.0/">
        <cc:permits
           rdf:resource="http://creativecommons.org/ns#Reproduction" />
        <cc:permits
           rdf:resource="http://creativecommons.org/ns#Distribution" />
        <cc:permits
           rdf:resource="http://creativecommons.org/ns#DerivativeWorks" />
      </cc:License>
    </rdf:RDF>
  </metadata>
  <g
     inkscape:groupmode="layer"
     id="layer2"
     inkscape:label="Ebene 2"
     transform="translate(3.5433049,2.7589847)">
    <path
       style="fill:#ffefbf;fill-opacity:1;fill-rule:evenodd;stroke:#55d400;stroke-width:0.30419779;stroke-linecap:butt;stroke-linejoin:miter;stroke-miterlimit:4;stroke-dasharray:none;stroke-opacity:1"
       d="m 61.568952,46.624412 -3.860694,3.533517 c -2.378505,2.61742 -2.539718,6.478114 -2.879162,9.095534 L 52.342547,51.204897 C 50.902966,49.032587 49.463385,48.219016 48.023804,47.409638 45.747322,46.887275 43.898991,47.0785 41.153076,45.77375 40.98653,40.229571 41.494154,34.348305 42.723528,28.106165 c 1.653217,-6.067677 2.737737,-12.160081 8.244873,-18.060197 3.396444,-4.8764001 7.894016,-6.0089654 12.105567,-8.1140013 3.010366,-0.7427123 5.553372,0.072443 8.048567,1.046968 0.686118,1.1167813 1.778683,1.9174371 0.981532,4.1878715 L 68.701421,15.54255 c -2.852466,5.333372 -4.491122,9.857538 -6.347243,14.52668 -1.554931,5.882661 -1.464845,7.770282 -1.897629,10.927729 -0.05095,1.365552 0.02655,2.313627 0.171332,3.043062"
       id="path5791"
       inkscape:connector-curvature="0"
       sodipodi:nodetypes="ccccccccccccccc" />
    <path
       style="fill:#ffcb00;fill-opacity:1;fill-rule:evenodd;stroke:#ff00ff;stroke-width:0.30419779;stroke-linecap:butt;stroke-linejoin:miter;stroke-miterlimit:4;stroke-dasharray:none;stroke-opacity:1"
       d="m 60.391113,43.876121 c 0,-0.654355 0.130871,-3.795259 0.130871,-3.795259 l 4.187872,-3.533517 c 1.163507,-0.522858 2.685829,0.03073 4.187872,0.523484 1.868971,0.83687 2.226154,1.913483 1.30871,3.795259 l 7.328776,-0.523484 c 3.018859,0.418584 5.697567,1.51747 8.375744,2.61742 l 8.244873,6.543551 8.768359,10.46968 c 0.8417,2.099003 2.20306,2.639024 2.09393,7.590517 l -3.1409,1.046968 -2.74829,-7.328775 -10.077068,-6.805292 c -6.549893,-4.210871 -11.068928,-5.713931 -15.573649,-7.197905 3.562767,6.457057 7.714611,10.853605 9.291841,13.0871 L 79.62915,62.328933 74.525181,57.486706 C 70.753971,56.752653 67.52675,55.202619 64.448114,53.429705 l 0.523484,6.674421 6.020066,25.650715 c 0.857623,3.627958 0.930449,7.059716 0.392613,10.338809 -0.194841,2.142646 -1.026864,4.44459 -2.61742,6.93617 l -5.496582,-0.13087 c -2.181183,0.64056 -4.362367,-1.44844 -6.54355,-2.7483 -2.748291,-3.254359 -5.496582,-5.547922 -8.244873,-12.432744 -1.963065,-4.919057 -3.92613,-8.858952 -5.889195,-17.405843 l -2.224807,-9.946195 -0.785226,7.852259 -0.392613,10.338809 c -0.438297,5.300619 -0.81344,8.78033 0.785226,13.741455 0.166928,3.717538 -1.639627,3.093416 -3.140904,3.140904 l -3.795259,-7.459647 c -2.181183,-3.53918 -4.362367,-7.133287 -6.54355,-12.040132 -2.104861,-6.315909 -2.246346,-10.423023 -1.570451,-13.610583 -0.567159,-4.464189 1.023035,-7.490143 2.486548,-10.600551 2.933765,-4.678125 6.290761,-6.393639 9.553583,-8.768358 -0.496304,-2.029574 -2.428983,-3.771873 -6.412679,-5.103969 -2.237616,0.188778 -2.778518,-0.9878 -8.768356,2.355678 -2.926665,3.230092 -4.52952,5.798277 -5.365711,7.983132 l -4.187872,10.600551 -6.0200656,8.114002 c -0.5671079,1.340794 -1.1342155,2.314656 -1.7013232,4.973097 l -0.261742,5.23484 -3.66438788,-1.701323 1.04696788,-8.899227 5.6274532,-8.899228 c 1.177839,-3.457958 2.355678,-6.559147 3.5335166,-10.993164 1.570452,-4.685292 3.140904,-6.826057 4.711356,-8.768358 3.627668,-4.148953 6.897465,-4.614964 10.207938,-6.54355 l 7.721388,0.130871 c 3.941945,1.361993 6.482888,3.524557 7.983131,6.281808 l -0.130871,7.72139 c 1.831572,1.089347 3.354338,1.561082 4.842227,1.963065 l 4.187872,1.177839 c 2.985553,4.080225 3.280836,5.918557 4.318743,8.375744 0.607057,-2.104191 0.571035,-3.458123 3.140904,-7.85226 l 4.057001,-2.61742"
       id="path4216"
       inkscape:connector-curvature="0"
       sodipodi:nodetypes="ccccccccccccccccccccccccccccccccccccccccccccccccccccccccc" />
    <path
       style="opacity:1;fill:url(#radialGradient6865);fill-opacity:1;fill-rule:evenodd;stroke:none;stroke-width:0.29055119;stroke-linecap:butt;stroke-linejoin:miter;stroke-miterlimit:4;stroke-dasharray:none;stroke-opacity:1"
       d="m 45.75,47.79921 c 0,0 2.812216,0.023 5.439929,1.74753 -3.524164,5.42308 -4.593521,19.0875 -3.939929,25.12747 0.490624,4.53396 4.287143,11.09705 6.919963,16.22352 3.349975,6.52287 7.809924,11.5115 6.830038,11.65148 0,0 -4.581764,-2.43554 -8.125,-7 -3.543237,-4.56446 -7.524392,-14.70129 -9.250001,-21 -1.725609,-6.2987 -2.651035,-11.87254 -2.625,-15.75 0.02604,-3.87745 1.132451,-6.14437 2.125,-8 0.992549,-1.85562 2.625,-3 2.625,-3 z"
       id="path6319-0"
       inkscape:connector-curvature="0"
       sodipodi:nodetypes="ccssczzzzc" />
    <path
       style="opacity:1;fill:#ffe087;fill-opacity:1;fill-rule:evenodd;stroke:none;stroke-width:0.29055119;stroke-linecap:butt;stroke-linejoin:miter;stroke-miterlimit:4;stroke-dasharray:none;stroke-opacity:1"
       d="m 43.531734,46.706886 c 0,0 -2.697149,3.393429 -3.5,5.375 -1.960779,4.839519 -1.889603,9.24467 -2.4375,14.4375 -0.249242,2.362249 0.523972,6.02359 0.1875,8.375 -0.841013,5.87737 -1.6875,14.1875 -0.375,16.5625 l 2.625,2.125 c -0.471336,-1.945331 -1.66309,-3.170241 -1.375,-5.875 l -0.5,-3.625 1.1875,-8.625 -0.0625,-10.625 c 0.376119,-3.542231 0.546909,-6.981791 1.875,-11 0.733372,-2.23796 1.897938,-4.42801 4.125,-6.5 z"
       id="path5904-2"
       inkscape:connector-curvature="0"
       sodipodi:nodetypes="csssccccccccc" />
    <path
       style="opacity:0.18999999;fill:url(#pattern5902);fill-opacity:1;fill-rule:evenodd;stroke:#ff00ff;stroke-width:0.30419779;stroke-linecap:butt;stroke-linejoin:miter;stroke-miterlimit:4;stroke-dasharray:none;stroke-opacity:1"
       d="m 60.372835,43.757715 c 0,-0.654355 0.130871,-3.795259 0.130871,-3.795259 l 4.187872,-3.533517 c 1.163506,-0.522858 2.685829,0.03073 4.187872,0.523484 1.868974,0.83687 2.226157,1.913483 1.30871,3.795259 l 7.328776,-0.523484 c 3.018859,0.418584 5.697568,1.51747 8.375744,2.61742 l 8.244873,6.543551 8.768357,10.46968 c 0.8417,2.099007 2.20306,2.639023 2.09393,7.590522 l -3.1409,1.046968 -2.74829,-7.32878 -10.077066,-6.805292 c -6.549895,-4.210871 -11.068933,-5.713931 -15.573649,-7.197905 3.562769,6.457057 7.714615,10.853605 9.291841,13.0871 L 79.610872,62.210531 74.506903,57.3683 c -3.77121,-0.734052 -6.998437,-2.284086 -10.077067,-4.057001 l 0.523484,6.674421 6.020066,25.65072 c 0.857624,3.627953 0.930451,7.059715 0.392613,10.338808 -0.194841,2.142641 -1.026866,4.444572 -2.61742,6.936172 l -5.496582,-0.13088 c -2.18118,0.64057 -4.36237,-1.44843 -6.54355,-2.74829 -2.748291,-3.254364 -5.496582,-5.547926 -8.244873,-12.432745 -1.963065,-4.919064 -3.92613,-8.858962 -5.889195,-17.405843 l -2.224807,-9.9462 -0.785226,7.852264 -0.392613,10.338809 c -0.438302,5.30061 -0.813441,8.780323 0.785226,13.741455 0.166929,3.717532 -1.639625,3.093413 -3.140904,3.140903 L 33.020796,87.861247 C 30.839617,84.322066 28.658426,80.72795 26.477247,75.821115 24.37238,69.505197 24.230903,65.398088 24.906795,62.210531 c -0.567164,-4.464193 1.023034,-7.490147 2.486549,-10.600555 2.933761,-4.678125 6.290759,-6.393639 9.553582,-8.768358 -0.496304,-2.029574 -2.428986,-3.771873 -6.412679,-5.103969 -2.237621,0.188778 -2.778516,-0.9878 -8.768356,2.355678 -2.926663,3.230092 -4.529519,5.798277 -5.365711,7.983132 L 12.212308,58.67701 6.1922414,66.791016 c -0.567111,1.340789 -1.1342116,2.314647 -1.7013228,4.973098 l -0.261742,5.23484 -3.66438788,-1.701323 1.04696788,-8.899228 5.6274538,-8.899232 c 1.177839,-3.457957 2.355678,-6.559147 3.5335166,-10.993164 1.570452,-4.685292 3.140904,-6.826056 4.711356,-8.768358 3.62767,-4.148953 6.897467,-4.614964 10.207938,-6.54355 l 7.721388,0.130871 c 3.94194,1.361993 6.482889,3.524557 7.983131,6.281808 l -0.130871,7.72139 c 1.831577,1.089347 3.354339,1.561083 4.842227,1.963065 l 4.187872,1.177839 c 2.985555,4.080225 3.280831,5.918557 4.318743,8.375744 0.607053,-2.104191 0.571037,-3.458123 3.140904,-7.85226 l 4.057001,-2.61742"
       id="path4216-6"
       inkscape:connector-curvature="0"
       sodipodi:nodetypes="ccccccccccccccccccccccccccccccccccccccccccccccccccccccccc" />
    <path
       style="color:#000000;font-style:normal;font-variant:normal;font-weight:normal;font-stretch:normal;font-size:medium;line-height:normal;font-family:sans-serif;text-indent:0;text-align:start;text-decoration:none;text-decoration-line:none;text-decoration-style:solid;text-decoration-color:#000000;letter-spacing:normal;word-spacing:normal;text-transform:none;direction:ltr;block-progression:tb;writing-mode:lr-tb;baseline-shift:baseline;text-anchor:start;white-space:normal;clip-rule:nonzero;display:inline;overflow:visible;visibility:visible;opacity:1;isolation:auto;mix-blend-mode:normal;color-interpolation:sRGB;color-interpolation-filters:linearRGB;solid-color:#000000;solid-opacity:1;fill:#dbb911;fill-opacity:1;fill-rule:evenodd;stroke:none;stroke-width:1px;stroke-linecap:butt;stroke-linejoin:miter;stroke-miterlimit:4;stroke-dasharray:none;stroke-dashoffset:0;stroke-opacity:1;color-rendering:auto;image-rendering:auto;shape-rendering:auto;text-rendering:auto;enable-background:accumulate"
       d="m 38.331171,44.953363 c 0,0 -1.603792,2.030437 -3.380153,4.666369 -1.776361,2.635932 -4.160365,5.926758 -4.888834,8.465305 -1.636188,5.701745 -1.083835,11.648827 -0.245794,17.417303 0.305447,2.102488 1.664431,5.614306 2.730697,8.152018 1.066267,2.537711 3.553501,9.913282 3.553501,9.913282 1.385361,-0.133229 2.616421,-0.729366 3.622576,-2.000219 0,0 -1.679605,-3.422505 -2.930476,-5.757109 -0.540178,-1.008181 -0.733846,-1.092281 -0.79232,-1.71148 -0.248544,-2.631905 -1.152981,-6.195081 -1.063664,-8.102459 0.180681,-3.858498 -0.08153,-7.186778 0.100195,-10.968626 0.141791,-2.950719 0.634481,-6.010882 1.488657,-8.829703 0.296317,-0.977859 1.111885,-2.462327 1.850598,-3.660297 0.738713,-1.197972 2.250116,-3.99478 2.250116,-3.99478 0,0 -2.382301,2.216554 -3.13963,3.444712 -0.757328,1.228158 -1.601751,2.713329 -1.963064,3.905682 -0.882759,2.913138 -1.385917,6.051537 -1.531601,9.083265 -0.18542,3.858643 0.07692,7.188234 -0.100194,10.97067 -0.109813,2.345061 0.195567,5.827095 0.470318,8.518884 -0.311027,-0.689314 -0.340741,-0.701605 -0.707522,-1.574542 -1.053846,-2.50815 -2.530344,-5.532241 -2.801444,-7.398301 -0.830858,-5.719047 -1.279403,-11.804193 0.286281,-17.260246 0.653638,-2.277779 2.572382,-5.641488 4.324877,-8.242005 1.752495,-2.600517 3.404279,-4.745294 3.404279,-4.745294 z"
       id="path4187"
       inkscape:connector-curvature="0"
       sodipodi:nodetypes="cssssccsssssscsssscsssscc" />
    <path
       style="color:#000000;font-style:normal;font-variant:normal;font-weight:normal;font-stretch:normal;font-size:medium;line-height:normal;font-family:sans-serif;text-indent:0;text-align:start;text-decoration:none;text-decoration-line:none;text-decoration-style:solid;text-decoration-color:#000000;letter-spacing:normal;word-spacing:normal;text-transform:none;direction:ltr;block-progression:tb;writing-mode:lr-tb;baseline-shift:baseline;text-anchor:start;white-space:normal;clip-rule:nonzero;display:inline;overflow:visible;visibility:visible;opacity:1;isolation:auto;mix-blend-mode:normal;color-interpolation:sRGB;color-interpolation-filters:linearRGB;solid-color:#000000;solid-opacity:1;fill:#c7a387;fill-opacity:0.35686275;fill-rule:evenodd;stroke:none;stroke-width:1.0629921;stroke-linecap:butt;stroke-linejoin:miter;stroke-miterlimit:4;stroke-dasharray:none;stroke-dashoffset:0;stroke-opacity:1;color-rendering:auto;image-rendering:auto;shape-rendering:auto;text-rendering:auto;enable-background:accumulate"
       d="M 71.316797,3.4774811 C 67.047325,4.6244747 62.593159,5.9428696 59.35181,9.1528228 54.329152,14.12683 50.640422,20.398713 48.498467,27.09255 c -1.819145,5.685018 -3.173623,13.413582 -3.614641,19.332464 0.359814,0.247789 0.785229,0.469736 1.453432,0.440217 -0.05902,-4.193435 0.81212,-8.331946 1.505733,-12.448774 1.414105,-8.393188 4.992296,-16.508153 10.706798,-22.869079 2.123105,-2.3632687 4.650959,-4.4810703 7.751861,-5.3655841 1.054471,-0.3007814 3.734878,-1.5973613 3.905922,-0.9758281 -2.559554,4.5767485 -5.587062,8.8728612 -8.162222,13.4359262 -3.407746,6.03837 -5.476854,12.804594 -6.562281,19.636282 -0.932424,5.868687 -1.305062,11.811989 -1.598699,17.744013 1.664835,0.580691 1.069836,-1.310954 1.24209,-2.379933 0.569126,-8.428146 1.202344,-16.956386 3.874114,-25.042128 C 60.72296,23.387563 63.252266,18.510225 66.262478,13.937128 68.32143,10.809181 70.150327,7.5357797 72.030453,4.2974698 71.6526,4.0938687 71.31453,3.9731361 71.316797,3.4774811 Z"
       id="path4183"
       inkscape:connector-curvature="0"
       sodipodi:nodetypes="cssccssscssccsscc" />
    <path
       style="opacity:0.38699999;fill:url(#pattern6043);fill-opacity:1;fill-rule:evenodd;stroke:none;stroke-width:0.29055119;stroke-linecap:butt;stroke-linejoin:miter;stroke-miterlimit:4;stroke-dasharray:none;stroke-opacity:1"
       d="m 43.875,47.04921 c 0,0 -2.697149,3.393432 -3.5,5.375 -1.960779,4.839522 -1.889603,9.244675 -2.4375,14.4375 -0.249242,2.362253 0.523972,6.023586 0.1875,8.375 -0.841013,5.877366 -1.6875,14.1875 -0.375,16.5625 l 2.625,2.125 C 39.903664,91.978879 38.71191,90.753967 39,88.04921 l -0.5,-3.625 1.1875,-8.625 -0.0625,-10.625 c 0.376119,-3.542226 0.546909,-6.981788 1.875,-11 0.733372,-2.237959 1.897938,-4.428007 4.125,-6.5 z"
       id="path5904"
       inkscape:connector-curvature="0"
       sodipodi:nodetypes="csssccccccccc" />
    <path
       style="opacity:1;fill:#ffe087;fill-opacity:1;fill-rule:evenodd;stroke:none;stroke-width:0.29055119;stroke-linecap:butt;stroke-linejoin:miter;stroke-miterlimit:4;stroke-dasharray:none;stroke-opacity:1"
       d="m 54.500001,52.299208 c 0,0 3.500855,-5.287585 6.030331,-7.021445 2.176322,-1.491787 4.457736,-2.570163 7.094669,-2.478553 4.728287,0.164267 9.40195,2.028614 13.640168,4.131283 6.335779,3.143316 18.63388,12.066945 18.63388,12.066945 l 4.475951,4.05177 0.5,5.25 -3.125,0.375 -1.750001,-4.75 -2,-3.375 c 0,0 -6.96766,-5.17101 -11.37239,-7.64644 -3.70375,-2.08149 -8.87427,-4.681009 -12.877607,-6.103557 -2.210188,-0.785369 -4.530817,-1.580882 -6.875,-1.500001 -2.082094,0.07184 -4.312285,0.52857 -6,1.750001 -2.74325,1.985344 -4.866117,4.397527 -5.75,8.374997 -0.53033,-1.41421 -0.625,-3.125 -0.625,-3.125 z"
       id="path6045-2"
       inkscape:connector-curvature="0"
       sodipodi:nodetypes="csssccccccsssscc" />
    <path
       style="opacity:0.29600004;fill:url(#pattern6317);fill-opacity:1;fill-rule:evenodd;stroke:none;stroke-width:0.29055119;stroke-linecap:butt;stroke-linejoin:miter;stroke-miterlimit:4;stroke-dasharray:none;stroke-opacity:1"
       d="m 54.5,52.29921 c 0,0 3.500855,-5.287588 6.03033,-7.021448 2.176322,-1.491787 4.457737,-2.570163 7.09467,-2.478553 4.728287,0.164267 9.40195,2.028614 13.640165,4.131283 6.335782,3.143316 18.633884,12.066941 18.633884,12.066941 l 4.475951,4.051777 0.5,5.25 -3.125,0.375 -1.75,-4.75 -2,-3.375 c 0,0 -6.96766,-5.171009 -11.372398,-7.646447 C 82.923852,50.821277 77.753337,48.221758 73.75,46.79921 c -2.210188,-0.785369 -4.530817,-1.580882 -6.875,-1.500001 -2.082094,0.07184 -4.312285,0.528569 -6,1.750001 -2.74325,1.985344 -4.866117,4.397524 -5.75,8.375 -0.53033,-1.414214 -0.625,-3.125 -0.625,-3.125 z"
       id="path6045"
       inkscape:connector-curvature="0"
       sodipodi:nodetypes="csssccccccsssscc" />
    <path
       style="opacity:0.23500001;fill:url(#pattern6501);fill-opacity:1;fill-rule:evenodd;stroke:none;stroke-width:0.29055119;stroke-linecap:butt;stroke-linejoin:miter;stroke-miterlimit:4;stroke-dasharray:none;stroke-opacity:1"
       d="m 45.75,47.79921 c 0,0 2.812216,0.02299 5.439928,1.747524 -3.524163,5.42308 -4.59352,19.087505 -3.939928,25.127476 0.490624,4.533951 4.287142,11.097042 6.919962,16.223515 3.349975,6.522874 7.809924,11.511505 6.830038,11.651485 0,0 -4.581764,-2.43554 -8.125,-7 -3.543236,-4.564462 -7.524391,-14.701297 -9.25,-21 -1.725609,-6.298703 -2.651035,-11.872546 -2.625,-15.75 0.02604,-3.877454 1.132451,-6.144374 2.125,-8 0.992549,-1.855626 2.625,-3 2.625,-3 z"
       id="path6319"
       inkscape:connector-curvature="0"
       sodipodi:nodetypes="ccssczzzzc" />
    <path
       style="opacity:0.32000002;fill:url(#pattern6685);fill-opacity:1;fill-rule:evenodd;stroke:none;stroke-width:0.29055119;stroke-linecap:butt;stroke-linejoin:miter;stroke-miterlimit:4;stroke-dasharray:none;stroke-opacity:1"
       d="m 41.625,37.174209 -0.5,8.125 c 0,0 -2.875,-0.875 -3.25,-1.75 -0.375,-0.875 -4.5,-4.625 -4.5,-4.625 0.691155,-2.206156 6.142113,1.001498 6.5,-2.75 z"
       id="path6503"
       inkscape:connector-curvature="0"
       sodipodi:nodetypes="ccsccc" />
    <path
       style="color:#000000;font-style:normal;font-variant:normal;font-weight:normal;font-stretch:normal;font-size:medium;line-height:normal;font-family:sans-serif;text-indent:0;text-align:start;text-decoration:none;text-decoration-line:none;text-decoration-style:solid;text-decoration-color:#000000;letter-spacing:normal;word-spacing:normal;text-transform:none;direction:ltr;block-progression:tb;writing-mode:lr-tb;baseline-shift:baseline;text-anchor:start;white-space:normal;clip-rule:nonzero;display:inline;overflow:visible;visibility:visible;opacity:1;isolation:auto;mix-blend-mode:normal;color-interpolation:sRGB;color-interpolation-filters:linearRGB;solid-color:#000000;solid-opacity:1;fill:#ad9000;fill-opacity:1;fill-rule:evenodd;stroke:none;stroke-width:1.77165353;stroke-linecap:butt;stroke-linejoin:miter;stroke-miterlimit:4;stroke-dasharray:none;stroke-dashoffset:0;stroke-opacity:1;color-rendering:auto;image-rendering:auto;shape-rendering:auto;text-rendering:auto;enable-background:accumulate"
       d="M 29.000477,30.445086 C 20.876,30.598055 13.759447,36.646431 11.03565,44.358219 9.5359084,48.604383 8.4882494,52.939299 6.6767474,57.028257 5.158888,60.454401 1.8823878,63.148701 0.74106742,66.618268 c -0.5961304,3.59706 -0.8007937,6.646065 -0.7264711,9.30449 1.39247768,2.05745 3.66944518,2.123434 5.59294238,1.791297 0.2046117,-2.490116 0.00988,-4.675018 0.5673122,-7.081402 1.2102949,-2.48079 2.3753389,-4.349618 4.3027471,-6.45673 4.222004,-4.615647 5.071886,-11.018973 7.983631,-16.487769 2.083431,-3.913072 5.276246,-8.43674 9.867868,-8.506465 2.52621,-0.03836 7.982503,1.290202 7.56423,3.829863 -4.72158,2.439767 -8.775026,6.217912 -10.506038,11.447176 -3.177132,9.597889 -1.763101,20.312712 3.715841,28.741486 2.78377,4.282536 5.559401,8.643837 7.076848,13.576019 3.495874,0.635608 6.756199,-2.871873 3.989145,-5.893726 -1.729125,-4.738285 -0.292296,-9.780605 0.18109,-14.61697 0.241789,-2.470246 0.329184,-10.146749 0.356954,-13.288481 1.987937,11.68344 6.230782,27.425258 13.99796,36.480202 1.23882,1.444212 2.32948,2.880462 4.812582,3.644112 2.615186,0.80427 4.151681,2.51437 5.078292,2.40886 1.754337,-2.03212 2.308276,-1.0897 4.248752,-0.68612 1.978299,-3.65627 4.183807,-8.978941 3.889985,-13.387361 -0.706177,-10.595283 -4.902434,-19.737328 -6.310492,-30.687715 -0.279254,-2.171749 -2.944499,-7.846471 0.989994,-4.903762 2.479902,1.854784 6.126146,1.196235 8.413155,3.549991 l 3.593179,3.698047 c 1.955704,0.142937 3.87387,0.154495 5.30232,-1.547959 -3.319875,-4.260968 -7.292194,-8.138284 -9.747844,-12.972587 8.607084,3.207289 16.766138,7.758964 23.76321,13.717959 1.47706,1.933899 1.59746,4.644375 2.48809,6.913954 0.1118,2.267727 5.01428,0.10627 5.07286,-0.987984 -0.87384,-3.979319 -1.81382,-8.053161 -4.49059,-11.357601 C 97.38589,51.399286 92.748569,45.99904 86.445066,42.654776 82.256972,40.432823 76.590418,38.801137 71.789332,40.258932 c -0.216438,-6.470757 -10.23734,-5.686258 -11.439247,0.0977 -0.704606,2.781538 2.839055,1.178943 2.633756,-1.149205 1.249082,-3.37385 8.67858,-1.528609 6.953573,0.247842 -3.350946,-1.354464 -3.01398,1.934305 -2.932987,3.120419 2.831777,-1.17979 6.42991,-1.419567 9.919052,-1.473438 5.73277,-0.08851 10.795295,4.004404 15.136371,7.517542 4.1943,3.394351 7.22955,8.066623 10.34909,12.455668 0.8304,1.168323 1.73726,2.410366 1.65834,4.035473 -0.0822,1.691517 -1.42677,1.095296 -2.71561,0.233526 -0.70986,-2.21413 -1.00491,-2.990615 -2.36222,-5.376263 C 91.433869,54.0052 80.915984,48.717918 73.879005,45.703321 c -7.03698,-3.014597 -11.268224,-1.38356 -15.770273,2.435525 -2.200719,1.866869 -3.464687,7.364689 -3.810016,7.294307 -0.670545,-4.398046 -3.258964,-9.168365 -8.320632,-9.050438 -2.361843,0.05503 -5.980655,-1.468726 -5.985859,-3.10078 -0.870584,-0.842706 -1.644491,-1.278319 -2.326949,-2.38802 -1.87099,-3.042297 -6.59147,-4.198696 -10.252615,-3.787392 -5.670562,0.637048 -9.028961,5.406553 -11.426349,10.303247 -2.876514,5.875318 -4.277975,13.02155 -9.4337996,17.492932 -0.9533652,2.59411 -2.818346,3.704467 -2.5093961,6.59826 0.4276106,1.601322 -1.4409925,3.211885 -2.3791122,1.010396 l 0.9496085,-6.027672 c 3.4901198,-4.756104 6.5091928,-9.814818 8.0309784,-15.670051 1.552047,-5.971661 3.86057,-12.716749 9.608182,-16.116881 4.544676,-2.688507 9.793405,-3.494474 14.830315,-1.769735 3.469838,1.188141 4.224443,5.507124 6.543777,6.201419 0.01727,-3.042094 -2.086042,-5.11619 -4.22603,-6.361606 -2.523957,-1.468875 -5.472507,-2.376872 -8.400358,-2.321746 z m 8.171259,13.95412 c 1.584112,2.05726 6.525713,1.413758 6.913232,3.961315 -4.038843,3.841503 -4.055657,9.58503 -4.75922,14.715051 -0.687722,5.014507 -0.113079,9.997866 -0.71446,15.032415 -0.588738,4.928719 -1.747015,8.413387 0.689205,13.112272 -0.433615,1.626392 -2.40233,1.969038 -2.944783,1.426719 -1.121234,-1.120956 -1.427095,-3.616808 -2.449898,-4.822119 -4.34672,-6.659775 -8.63449,-14.002538 -8.491768,-22.24801 0.122037,-7.050398 1.89523,-15.283712 8.472863,-19.155711 1.108336,-0.652435 2.163848,-1.391643 3.284829,-2.021932 z m 28.092277,1.924213 c -2.432411,2.799611 -5.886362,9.916656 -5.429076,13.150048 1.071928,-1.744588 1.761969,-4.00852 3.143987,-6.50987 0.862478,8.362844 3.174389,19.176848 5.513926,27.253982 1.689449,5.832741 3.13903,12.326704 1.256274,18.266497 -0.768984,2.426024 -1.215926,2.278674 -3.025876,1.067858 -1.085154,3.548856 -6.74367,1.942096 -9.060677,0.0091 C 51.54892,94.460706 49.538481,88.86995 46.66325,81.676472 43.706004,74.277801 41.7394,66.310921 41.620398,58.367977 c -0.05634,-3.759982 2.648492,-11.155018 7.112971,-9.513022 4.135054,1.520836 4.367717,7.204245 5.260186,11.088719 2.169067,9.44086 3.285166,17.07881 5.874996,26.145602 1.401446,4.906346 2.318596,8.609666 3.922095,13.517632 0.452092,-0.330709 -1.054134,-6.877249 -1.603188,-9.102646 -2.687639,-10.893388 -4.744596,-18.663004 -6.342866,-29.734515 -0.687352,-4.761409 0.08532,-8.963721 4.467606,-12.086405 1.490982,-1.062428 3.115683,-2.09387 4.951815,-2.359923 z m 2.868937,-0.09655 c 1.967652,-0.179259 4.147166,0.580439 5.131518,1.700774 0.892668,2.428483 2.685325,4.045682 4.00297,6.235143 1.292379,2.147478 1.902028,2.883099 3.478008,4.830987 -0.798044,2.379098 -1.413919,1.559286 -2.194885,1.072703 -0.740469,-0.710735 -0.976462,-0.959494 -2.37556,-2.055581 -1.417567,-1.110555 -2.894103,-1.406438 -4.066636,-1.874897 -2.716784,-1.085431 -6.520631,-2.498267 -8.500805,-4.094493 0.869625,-2.430106 2.809157,-5.127579 4.52539,-5.814636 z"
       id="path4169"
       inkscape:connector-curvature="0"
       sodipodi:nodetypes="sssccccssscssccscssccssssccccccsscccccssscccsscscsssccccssscssccsscccssccccsscsssssscssscccsccsscc" />
    <path
       style="opacity:0.32000002;fill:url(#radialGradient7026);fill-opacity:1;fill-rule:evenodd;stroke:none;stroke-width:0.29055119;stroke-linecap:butt;stroke-linejoin:miter;stroke-miterlimit:4;stroke-dasharray:none;stroke-opacity:1"
       d="m 41.625,37.174209 -0.5,8.125 c 0,0 -2.875,-0.875 -3.25,-1.75 -0.375,-0.875 -4.5,-4.625 -4.5,-4.625 0.691155,-2.20616 6.142113,1.00149 6.5,-2.75 z"
       id="path6503-9"
       inkscape:connector-curvature="0"
       sodipodi:nodetypes="ccsccc" />
    <path
       style="color:#000000;font-style:normal;font-variant:normal;font-weight:normal;font-stretch:normal;font-size:medium;line-height:normal;font-family:sans-serif;text-indent:0;text-align:start;text-decoration:none;text-decoration-line:none;text-decoration-style:solid;text-decoration-color:#000000;letter-spacing:normal;word-spacing:normal;text-transform:none;direction:ltr;block-progression:tb;writing-mode:lr-tb;baseline-shift:baseline;text-anchor:start;white-space:normal;clip-rule:nonzero;display:inline;overflow:visible;visibility:visible;opacity:1;isolation:auto;mix-blend-mode:normal;color-interpolation:sRGB;color-interpolation-filters:linearRGB;solid-color:#000000;solid-opacity:1;fill:#c6a287;fill-opacity:1;fill-rule:evenodd;stroke:none;stroke-width:1.77165353;stroke-linecap:butt;stroke-linejoin:miter;stroke-miterlimit:4;stroke-dasharray:none;stroke-dashoffset:0;stroke-opacity:1;color-rendering:auto;image-rendering:auto;shape-rendering:auto;text-rendering:auto;enable-background:accumulate"
       d="M 64.767113,0.87233039 C 60.765898,1.1214747 56.656598,3.3982205 53.711609,5.9487044 48.524785,10.440711 44.793771,17.383001 42.972595,23.889647 c -1.391883,4.972877 -1.773919,9.451223 -2.559538,14.570343 -0.368099,2.398555 -0.282185,3.095702 0.05071,5.686569 0.300281,0.551848 1.119069,1.201981 1.710353,1.216718 -0.163634,-6.174203 0.294767,-13.249047 1.862914,-19.043196 1.873619,-6.922834 5.488258,-13.238957 10.922262,-18.2103535 2.69096,-2.4618736 5.841242,-4.9950919 9.578102,-5.3435807 2.266616,-0.2113781 4.394955,-0.00152 5.949634,2.0719597 1.077347,1.4368566 0.380142,3.313059 -0.177267,4.7336438 -2.524451,6.4336947 -5.592478,11.8841527 -7.842774,18.4179687 -1.289877,3.745206 -2.156438,7.870978 -2.576244,11.83392 -0.25195,2.378402 -0.577253,3.530409 0.192554,5.737206 0.51182,-0.397532 2.010028,-0.11286 1.41805,-1.023063 -1.678314,-1.481649 -0.434942,-3.841164 -0.08168,-6.363293 1.139577,-8.135983 4.845286,-15.814655 8.046119,-23.094828 C 70.84017,11.953707 72.466748,9.2184216 73.422018,5.9296355 73.975038,4.0256553 72.217515,2.2382669 70.627641,1.4810001 68.818842,0.61945779 66.708786,0.75142789 64.767113,0.87233039 Z"
       id="path4179"
       inkscape:connector-curvature="0"
       sodipodi:nodetypes="ssssccsssssssccsssss" />
  </g>
</svg>
